<?xml version="1.0" standalone="no"?>
<!DOCTYPE svg PUBLIC "-//W3C//DTD SVG 20010904//EN"
 "http://www.w3.org/TR/2001/REC-SVG-20010904/DTD/svg10.dtd">
<svg version="1.0" xmlns="http://www.w3.org/2000/svg"
 width="256.000000pt" height="256.000000pt" viewBox="0 0 256.000000 256.000000"
 preserveAspectRatio="xMidYMid meet">
<metadata>
Created by potrace 1.11, written by Peter Selinger 2001-2013
</metadata>
<g transform="translate(0.000000,256.000000) scale(0.100000,-0.100000)"
fill="#000000" stroke="none">
<path d="M245 2388 c-20 -44 -26 -73 -26 -131 -1 -142 59 -244 267 -457 l142
-145 7 -70 c15 -151 61 -294 121 -372 l25 -33 -378 -2 -378 -3 -11 -50 c-17
-71 -16 -133 1 -193 l16 -52 184 0 c102 0 185 -3 185 -6 0 -3 -32 -36 -71 -73
l-72 -67 86 -89 86 -90 -114 -115 -114 -115 33 -46 c36 -49 107 -115 143 -131
19 -10 34 1 133 93 61 57 115 105 119 107 4 1 40 -31 79 -73 40 -41 75 -75 79
-75 6 0 163 159 163 165 0 2 -31 39 -70 82 l-69 78 57 58 c52 52 82 70 82 48
0 -15 83 -103 120 -126 84 -53 197 -68 304 -40 80 21 137 57 196 123 l50 56
63 -62 62 -62 -76 -76 -75 -75 81 -80 c45 -43 86 -79 91 -79 5 0 41 32 79 70
38 39 75 70 81 70 7 0 60 -51 117 -112 l106 -113 33 19 c48 27 116 95 145 144
l26 43 -44 47 c-24 26 -73 77 -108 114 l-64 66 49 54 c26 29 59 65 71 79 l23
25 -64 76 -65 75 74 6 c126 11 230 62 283 139 30 44 52 105 52 146 l0 22 -390
0 c-214 0 -390 3 -390 6 0 3 12 20 26 37 69 81 124 246 124 368 l0 62 111 106
c185 175 282 316 309 447 16 74 0 152 -39 196 l-27 30 -206 -208 c-113 -115
-215 -220 -226 -234 l-20 -25 -68 68 c-83 83 -182 150 -283 191 -71 29 -84 31
-206 31 -125 0 -133 -1 -207 -33 -103 -45 -159 -83 -247 -169 -80 -77 -77 -77
-121 -33 -3 3 -101 99 -217 214 l-213 209 -25 -55z m465 -1517 c0 -4 -27 -33
-60 -66 l-60 -59 -31 29 c-17 17 -44 46 -60 66 l-29 37 120 0 c66 -1 120 -4
120 -7z m1366 -13 c1 -2 -23 -30 -54 -63 l-55 -59 -54 59 c-29 33 -53 63 -53
68 0 6 209 1 216 -5z"/>
</g>
</svg>
